<?xml version="1.0" standalone="no"?>
<!DOCTYPE svg PUBLIC "-//W3C//DTD SVG 20010904//EN"
 "http://www.w3.org/TR/2001/REC-SVG-20010904/DTD/svg10.dtd">
<svg version="1.0" xmlns="http://www.w3.org/2000/svg"
 width="3403.000000pt" height="4898.000000pt" viewBox="0 0 3403.000000 4898.000000"
 preserveAspectRatio="xMidYMid meet">

<g transform="translate(0.000000,4898.000000) scale(0.100000,-0.100000)"
fill="#000000" stroke="none">
<path d="M11040 47200 l0 -1780 -1840 0 -1840 0 0 -5340 0 -5340 -1840 0
-1840 0 0 -3560 0 -3560 -475 0 -475 0 1 -1247 c1 -687 5 -1215 9 -1176 57
544 467 990 1013 1104 128 27 340 29 472 6 267 -48 506 -176 694 -373 234
-245 351 -537 351 -879 0 -351 -126 -655 -374 -900 -250 -247 -539 -365 -897
-365 -273 0 -485 65 -715 218 -296 199 -502 540 -543 902 -5 43 -9 -884 -10
-2167 l-1 -2243 475 0 475 0 0 -7120 0 -7120 1840 0 1840 0 0 -1780 0 -1780
1840 0 1840 0 0 -685 0 -685 774 0 775 0 -55 51 c-72 69 -78 91 -68 267 l9
141 -27 31 c-18 20 -28 42 -28 63 0 17 -7 187 -15 377 -19 465 -18 536 8 576
46 70 244 74 317 6 l29 -27 10 -205 c6 -113 13 -327 15 -477 l5 -272 -25 -37
-25 -36 16 -135 c9 -75 14 -150 11 -168 -8 -42 -58 -110 -99 -135 -32 -20 -30
-20 1001 -20 l1032 0 0 455 c0 297 3 455 10 455 7 0 10 677 10 2010 l0 2010
1840 0 1840 0 0 1780 0 1780 3680 0 3680 0 0 -1780 0 -1780 1840 0 1840 0 0
1780 0 1780 1840 0 1840 0 0 -1780 0 -1780 175 0 175 0 0 785 0 785 40 0 40 0
0 3795 0 3795 -40 0 -40 0 0 160 0 160 -40 0 -40 0 0 600 0 600 -135 0 -135 0
0 1040 0 1040 -25 0 -25 0 0 200 0 200 -40 0 -40 0 0 2755 0 2755 -80 0 -80 0
0 200 0 200 -40 0 -40 0 0 160 0 160 -40 0 -40 0 0 160 0 160 -40 0 -40 0 0
960 0 960 -40 0 -40 0 0 675 0 675 80 0 80 0 0 160 0 160 -40 0 -40 0 0 680 0
680 40 0 40 0 0 130 0 130 -1615 0 -1615 0 0 3560 0 3560 -5520 0 -5520 0 0
5340 0 5340 -3680 0 -3680 0 0 -1780z m553 -2958 c23 -10 48 -26 55 -34 7 -9
30 -105 51 -215 72 -368 121 -525 246 -778 70 -142 88 -187 104 -270 23 -116
39 -379 24 -388 -6 -4 -12 16 -16 51 -20 217 -198 416 -427 477 -73 19 -217
19 -294 -1 -92 -24 -193 -81 -262 -149 -73 -72 -110 -134 -145 -239 l-26 -79
-7 75 c-8 89 8 273 29 346 9 28 48 115 88 194 112 219 178 432 246 797 17 90
37 171 44 179 41 50 209 70 290 34z m-29 -1357 c104 -17 214 -106 264 -213
l27 -57 3 -1220 c2 -883 0 -1237 -8 -1280 -23 -117 -97 -211 -208 -263 -51
-24 -69 -27 -162 -27 -86 1 -114 5 -152 22 -55 25 -131 92 -164 144 -56 89
-54 36 -54 1365 0 1200 0 1223 20 1288 38 121 158 223 290 245 55 9 68 8 144
-4z m-64 -6340 c206 -30 372 -121 523 -286 248 -271 302 -692 132 -1029 -97
-192 -289 -363 -493 -437 -131 -48 -357 -68 -492 -43 -356 65 -650 352 -725
711 -8 39 -15 122 -15 189 0 135 16 224 60 340 105 272 363 491 653 554 82 18
239 19 357 1z m11350 -295 c47 -6 102 -15 122 -21 l38 -10 -30 -60 c-40 -78
-88 -222 -106 -316 -70 -366 -11 -740 186 -1181 77 -172 80 -155 -30 -190 -96
-31 -172 -42 -285 -42 -56 0 -128 5 -161 11 -351 62 -631 320 -726 671 -32
117 -32 345 0 463 81 299 310 541 599 634 145 47 254 58 393 41z m277 -76
c196 -86 376 -273 462 -478 50 -121 65 -196 65 -346 1 -121 -2 -144 -26 -215
-14 -44 -35 -111 -47 -150 -38 -130 -176 -301 -324 -403 -83 -56 -71 -65 -162
123 -225 465 -282 876 -171 1255 24 85 77 212 98 237 12 15 27 12 105 -23z
m-9182 -1695 c16 -8 14 -9 -11 -5 -74 11 -154 -32 -154 -84 0 -32 44 -77 87
-89 70 -20 166 22 170 75 3 32 -9 51 -47 77 -13 9 -19 17 -13 17 24 0 83 -67
83 -94 0 -91 -172 -132 -290 -71 -87 45 -78 140 15 173 38 13 133 14 160 1z
m-927 -74 c69 -21 122 -71 122 -116 0 -45 -21 -74 -73 -101 -62 -33 -202 -33
-270 1 -27 13 -58 38 -68 55 -70 111 113 213 289 161z m-3488 -250 c372 -56
712 -199 1022 -427 l68 -50 67 62 c133 121 298 211 471 257 191 50 454 42 636
-20 l70 -23 -125 -74 c-163 -96 -441 -271 -609 -383 -137 -91 -519 -361 -516
-364 0 -1 96 28 211 64 1738 537 3580 546 5295 28 1243 -376 2352 -1014 3418
-1967 206 -185 696 -677 894 -898 633 -709 1221 -1497 1819 -2440 169 -266
448 -724 452 -742 1 -6 -19 -23 -44 -38 l-45 -27 -140 231 c-704 1167 -1382
2105 -2118 2931 -204 228 -704 731 -906 909 -883 783 -1725 1311 -2710 1701
-779 308 -1616 503 -2495 581 -243 21 -937 30 -1205 15 -882 -50 -1746 -226
-2558 -519 l-184 -66 -116 -96 c-65 -52 -154 -122 -200 -154 -139 -100 -280
-223 -447 -391 -584 -584 -1068 -1392 -1376 -2293 l-48 -143 127 -125 c223
-219 372 -336 540 -423 169 -86 264 -99 437 -57 320 78 810 316 1271 617 83
55 155 99 161 99 6 0 23 -34 38 -76 37 -102 35 -154 -14 -344 -22 -85 -105
-416 -186 -734 -80 -318 -154 -595 -165 -616 -22 -43 -62 -76 -147 -119 -35
-17 -63 -32 -64 -34 0 -1 -6 -103 -13 -227 l-14 -225 69 -72 c50 -53 70 -82
75 -109 7 -37 -2 -498 -15 -808 -6 -154 -7 -159 -32 -180 -15 -13 -103 -64
-196 -115 l-170 -91 -7 -53 c-3 -28 -6 -102 -6 -163 l0 -111 333 4 c306 4 338
6 407 26 105 31 328 30 442 -1 205 -56 331 -128 478 -272 59 -58 122 -127 140
-153 51 -77 109 -210 137 -315 24 -86 27 -116 26 -262 0 -137 -3 -178 -21
-241 -26 -95 -77 -197 -132 -267 -44 -54 -220 -192 -441 -344 l-126 -87 -6
-328 c-3 -180 -4 -329 -2 -331 1 -2 47 8 101 22 142 35 288 62 454 83 202 25
748 25 892 0 54 -9 115 -17 135 -17 86 -1 578 -113 568 -130 -2 -4 -60 -29
-127 -56 -156 -62 -498 -231 -649 -322 -202 -120 -382 -256 -576 -433 l-76
-69 -126 0 c-191 0 -299 -15 -477 -66 -51 -15 -52 -15 -58 -63 -6 -47 -11 -52
-114 -144 -417 -368 -790 -873 -1071 -1447 l-81 -165 -10 -115 c-13 -147 -13
-473 0 -615 23 -249 70 -509 136 -752 l36 -132 -26 -122 c-174 -810 -211
-1723 -101 -2486 14 -94 28 -180 31 -190 13 -42 -26 34 -181 357 -171 352
-284 596 -405 870 -41 91 -76 167 -80 170 -20 16 -332 793 -397 989 -110 334
-170 654 -194 1041 -11 172 -7 458 8 586 l5 51 -89 7 c-49 4 -95 11 -103 16
-12 7 -7 93 38 582 67 747 66 721 53 812 -17 119 -34 141 -190 249 -263 181
-1004 672 -1057 701 -78 41 -137 42 -462 7 -155 -17 -289 -31 -298 -31 -13 0
-14 12 -9 83 44 556 247 1021 622 1428 191 207 518 430 789 539 l81 33 7 191
7 191 -33 28 c-36 31 -553 365 -688 445 -124 73 -124 73 -129 206 -2 61 2 453
9 871 l12 760 25 45 c14 25 85 104 158 175 l133 130 0 255 1 256 50 159 c28
88 91 281 141 430 49 148 90 270 90 270 0 0 -30 0 -68 1 -48 1 -98 11 -177 37
-482 159 -830 546 -940 1047 -9 42 -19 145 -22 235 -6 180 7 294 52 450 54
187 194 430 318 553 l54 53 -18 77 c-119 494 -54 1047 177 1511 189 382 479
699 844 924 285 175 635 287 1000 321 89 8 397 -4 500 -19z m4168 -1269 c88
-46 124 -144 87 -233 -20 -48 -41 -71 -87 -94 -102 -52 -232 16 -253 132 -14
74 29 159 97 192 41 20 120 22 156 3z m-2469 -290 c101 -52 133 -189 64 -274
-43 -53 -88 -74 -150 -69 -228 17 -219 354 10 357 26 0 61 -7 76 -14z m16435
-154 c118 -155 327 -217 496 -149 61 25 66 26 90 10 101 -64 260 -224 260
-261 0 -10 -18 -49 -40 -88 l-39 -71 -98 17 c-234 43 -371 55 -648 54 -366 0
-610 -30 -954 -120 -73 -19 -136 -32 -139 -30 -6 7 60 135 106 204 46 71 169
201 242 256 193 147 374 211 662 235 10 0 36 -24 62 -57z m176 32 c90 -17 206
-56 284 -96 l50 -25 -25 -14 c-16 -9 -55 -14 -119 -13 -80 0 -104 4 -151 26
-57 26 -132 86 -150 120 -12 23 1 23 111 2z m-11649 -38 c43 -29 79 -97 79
-149 0 -115 -113 -206 -220 -177 -75 20 -140 101 -140 175 0 66 61 150 125
173 43 16 113 6 156 -22z m4441 -228 c137 -58 200 -237 133 -374 -83 -170
-296 -205 -430 -70 -65 65 -90 130 -83 220 6 75 33 130 86 178 50 45 72 57
125 68 53 11 109 3 169 -22z m7978 -308 c16 -33 30 -61 30 -64 0 -2 -27 3 -59
11 l-59 15 22 49 c11 27 24 49 28 49 4 0 21 -27 38 -60z m-335 -35 c72 -9 131
-18 132 -19 2 -1 -31 -52 -72 -112 -140 -208 -345 -426 -568 -605 -54 -44
-102 -78 -105 -76 -316 170 -636 246 -996 235 l-158 -5 5 141 c2 77 10 164 17
193 l12 52 121 40 c267 87 569 147 867 175 115 10 620 -2 745 -19z m295 -45
c25 -6 55 -12 67 -15 18 -4 27 -21 47 -83 123 -389 28 -809 -249 -1107 -62
-66 -61 -62 1 35 72 112 175 334 174 373 -1 6 -14 -22 -29 -63 -38 -101 -92
-208 -156 -307 -53 -80 -121 -163 -135 -163 -4 0 -34 35 -67 78 -82 106 -227
248 -340 334 l-94 71 53 46 c246 211 488 497 623 739 22 40 45 72 50 72 6 0
30 -5 55 -10z m-13465 -185 c138 -22 230 -51 350 -109 362 -174 613 -494 696
-886 29 -136 31 -362 6 -492 -52 -263 -164 -475 -352 -664 -199 -199 -435
-318 -717 -360 -543 -80 -1072 198 -1322 693 -166 332 -169 775 -6 1111 126
261 324 463 578 591 91 46 258 100 359 115 119 19 298 19 408 1z m3268 -119
c117 -50 144 -210 51 -298 -147 -137 -367 39 -275 219 39 78 142 114 224 79z
m3032 -37 c39 -14 74 -38 110 -74 67 -68 95 -137 95 -238 0 -125 -72 -237
-185 -289 -71 -32 -191 -32 -256 0 -74 36 -125 87 -161 159 -28 57 -33 77 -33
142 0 66 4 85 33 143 38 78 92 129 166 157 69 27 160 27 231 0z m5709 -338
c60 -12 154 -37 210 -55 108 -36 246 -95 246 -105 0 -6 -253 -174 -360 -238
-123 -74 -322 -183 -334 -183 -18 0 -125 115 -173 185 -58 86 -117 207 -147
303 -14 46 -26 89 -26 97 0 21 35 23 265 20 169 -2 231 -6 319 -24z m-17841 3
c45 -23 66 -44 88 -86 45 -87 7 -197 -83 -244 -36 -19 -112 -18 -154 2 -133
63 -134 258 -2 323 51 25 107 27 151 5z m18575 -333 c95 -71 290 -261 337
-330 29 -42 29 -43 10 -58 -42 -33 -187 -94 -280 -119 -176 -47 -396 -48 -568
-4 -145 36 -342 129 -321 150 5 5 69 45 142 89 155 94 367 236 467 314 82 63
66 67 213 -42z m-5537 -343 c297 -136 304 -554 12 -699 -41 -21 -63 -24 -153
-24 -95 0 -110 3 -163 28 -74 37 -147 110 -184 184 -26 53 -28 67 -28 168 0
101 2 115 28 165 47 92 123 160 218 194 68 25 198 17 270 -16z m-2401 -377
c104 -55 133 -192 58 -277 -41 -46 -77 -64 -133 -64 -188 0 -250 256 -83 339
53 26 112 27 158 2z m-8606 -666 c118 -25 245 -120 300 -224 94 -179 61 -407
-77 -523 -91 -77 -140 -107 -202 -123 -163 -42 -328 6 -440 127 -237 256 -110
669 229 743 80 18 107 18 190 0z m11749 -80 c86 -22 154 -61 214 -121 179
-179 177 -474 -4 -645 -134 -127 -332 -156 -498 -72 -175 87 -277 287 -245
477 42 256 291 424 533 361z m4647 -355 c52 -6 131 -19 175 -31 86 -22 257
-93 274 -113 14 -16 -84 -97 -200 -167 -90 -54 -94 -59 -25 -29 54 23 140 76
214 132 l52 41 41 -28 c63 -41 204 -180 258 -254 98 -134 164 -287 195 -451
20 -106 21 -313 1 -417 -27 -142 -94 -308 -164 -408 l-28 -40 163 -167 c183
-188 404 -445 404 -470 0 -26 -67 -211 -109 -301 -84 -182 -275 -419 -456
-567 -222 -181 -507 -320 -778 -379 -244 -53 -508 -50 -666 8 -285 104 -490
332 -563 628 -30 120 -29 303 1 418 97 364 400 617 779 650 44 4 97 4 116 1
33 -6 35 -9 30 -36 -5 -22 0 -34 19 -54 32 -31 56 -33 91 -5 31 24 35 66 9 98
-41 49 -285 53 -444 7 -176 -51 -290 -119 -411 -244 -132 -136 -211 -294 -244
-485 -56 -317 80 -668 336 -868 38 -29 67 -55 65 -57 -9 -9 -207 94 -295 152
-301 201 -582 588 -670 924 -32 120 -43 246 -30 346 26 213 100 405 193 499
28 30 62 59 75 66 22 12 21 9 -8 -41 -84 -143 -96 -206 -56 -311 38 -99 35
-141 -15 -212 -22 -31 -38 -59 -36 -61 7 -8 174 145 219 201 102 126 114 195
74 400 -14 72 -26 154 -26 183 0 65 27 145 74 214 19 29 31 55 25 56 -5 2 -56
-19 -113 -47 -186 -90 -336 -259 -395 -446 -63 -196 -90 -429 -72 -616 25
-259 87 -444 222 -665 118 -194 323 -413 494 -530 481 -328 1085 -358 1655
-83 417 201 749 548 916 958 24 58 44 112 44 119 0 29 23 3 122 -135 592 -834
930 -1743 1035 -2783 24 -243 24 -805 0 -1046 -28 -280 -103 -736 -128 -775
-5 -9 -137 73 -445 277 -241 159 -465 309 -497 334 -128 99 -192 121 -342 121
-59 0 -498 -42 -1075 -105 -1059 -113 -1043 -111 -1160 -186 -65 -42 -149
-135 -188 -208 -69 -130 -38 109 -487 -3812 -42 -365 -78 -667 -81 -669 -18
-18 -480 -93 -714 -116 -167 -16 -180 -20 -180 -61 0 -39 -69 -438 -110 -638
-22 -109 -68 -307 -102 -440 -33 -132 -61 -247 -62 -254 -1 -8 25 -24 59 -36
138 -53 231 -111 333 -210 260 -250 344 -667 203 -1007 -92 -221 -289 -412
-513 -499 -216 -84 -492 -78 -702 15 -32 14 -60 25 -61 23 -1 -2 -39 -68 -85
-148 -337 -591 -742 -1060 -1136 -1316 -92 -59 -214 -123 -259 -135 -16 -4
-75 -24 -130 -43 -323 -111 -669 -77 -935 92 l-61 39 -72 -14 c-331 -65 -634
157 -896 658 -93 177 -207 474 -260 675 -10 37 -15 43 -47 49 -101 18 -222
100 -331 223 -186 207 -249 345 -225 492 16 95 59 170 232 402 l154 208 -3
372 c-4 699 52 1312 185 2017 216 1141 639 2282 1132 3055 l44 69 -16 56 c-47
170 -61 421 -30 568 48 235 159 394 336 481 118 59 1200 714 1206 731 4 11
-10 12 -74 7 -563 -49 -1084 -403 -1614 -1097 -360 -471 -726 -1165 -990
-1874 -383 -1031 -612 -2118 -690 -3280 -6 -82 -13 -301 -17 -485 -21 -1179
166 -2219 531 -2950 295 -591 679 -933 1141 -1020 l100 -18 -60 -1 c-33 0
-103 6 -155 13 -476 72 -888 439 -1190 1061 -429 885 -609 2215 -495 3665 160
2025 833 3981 1774 5155 117 146 352 389 481 497 261 219 518 358 785 425 98
24 129 27 281 27 l170 1 -23 130 c-12 72 -23 131 -23 132 0 12 -217 86 -302
103 -32 6 -122 42 -200 80 -390 186 -842 311 -1313 362 -181 20 -655 17 -835
-6 -370 -45 -733 -136 -1063 -267 -53 -22 -100 -39 -104 -39 -9 0 5 169 28
355 90 705 323 1412 671 2035 290 517 683 1017 1108 1405 78 72 148 133 155
137 10 6 37 -36 101 -155 194 -360 278 -489 399 -612 91 -93 213 -178 288
-200 48 -14 59 -14 187 11 283 53 642 156 811 232 178 80 432 272 844 636 295
261 414 371 702 650 82 80 116 120 126 149 l13 40 72 -67 c46 -44 73 -63 76
-55 64 217 170 509 242 667 l34 75 132 -7 c73 -4 134 -9 137 -11 2 -2 -21 -31
-51 -64 -169 -182 -326 -409 -437 -629 l-42 -83 58 -149 c31 -83 60 -150 63
-150 3 0 16 21 30 47 43 82 215 335 301 444 97 124 352 381 463 468 91 71 60
69 305 20 210 -42 430 -101 650 -174 107 -36 195 -64 197 -63 1 2 30 45 65 97
112 168 273 308 452 391 103 48 220 84 251 76 43 -11 181 -109 247 -175 83
-85 160 -203 201 -306 28 -73 32 -94 39 -245 5 -92 15 -191 24 -224 33 -124
103 -217 263 -350 119 -99 144 -127 174 -193 16 -35 22 -68 23 -121 l0 -74 18
41 c54 124 79 325 58 472 -34 234 -185 524 -372 712 -93 93 -132 115 -79 45
219 -291 325 -579 274 -743 -16 -53 -19 -56 -22 -30 -11 102 -55 197 -171 372
-89 135 -109 173 -186 344 -29 64 -74 149 -100 190 -57 88 -176 214 -253 266
l-55 38 49 6 c78 9 103 9 204 -1z m-3120 -234 c0 -2 -14 -35 -31 -73 -18 -37
-58 -131 -90 -208 -56 -133 -58 -138 -59 -95 0 65 -26 224 -49 302 l-19 67
116 4 c64 1 120 4 125 5 4 1 7 0 7 -2z m787 -55 c8 -4 -21 -32 -75 -73 -199
-151 -412 -366 -566 -572 -80 -107 -88 -115 -56 -61 148 250 274 416 464 612
l109 113 56 -6 c31 -4 61 -10 68 -13z m-7442 -166 c227 -40 422 -218 491 -450
25 -82 25 -258 0 -340 -51 -172 -175 -321 -327 -393 -106 -51 -171 -65 -284
-65 -264 0 -488 152 -587 398 -31 77 -33 85 -33 225 0 127 3 154 24 213 30 88
107 203 179 267 65 59 192 123 272 139 30 6 64 13 75 15 42 8 113 5 190 -9z
m3352 -584 c76 -35 120 -135 93 -215 -48 -146 -232 -173 -317 -47 -61 91 -31
209 67 259 54 27 101 28 157 3z m-9951 -796 c33 -7 92 -32 132 -54 39 -23 75
-41 79 -41 21 0 117 -98 161 -163 74 -111 97 -194 97 -347 0 -153 -23 -236
-97 -347 -44 -65 -140 -163 -161 -163 -4 0 -38 -17 -75 -38 -90 -51 -130 -62
-243 -69 -190 -11 -339 45 -475 181 -62 62 -90 99 -118 158 -87 182 -87 374 0
556 46 96 167 221 261 270 127 67 303 89 439 57z m6014 -2836 c47 -5 126 -24
175 -40 446 -149 701 -606 598 -1074 -20 -91 -63 -197 -77 -192 -6 3 -51 30
-101 62 -114 72 -380 203 -506 249 -308 113 -573 163 -914 173 -504 14 -971
-91 -1474 -333 -472 -227 -852 -505 -1287 -939 -535 -535 -963 -1145 -1348
-1925 -507 -1025 -834 -2177 -940 -3310 -41 -432 -46 -1014 -11 -1390 110
-1206 496 -2165 1124 -2790 69 -69 164 -156 211 -194 291 -232 651 -410 1008
-497 50 -12 90 -24 88 -27 -6 -6 -173 16 -296 40 -58 11 -193 49 -300 84 -315
104 -603 258 -838 447 -58 47 -91 67 -111 67 -42 0 -395 -64 -583 -106 -383
-85 -549 -134 -1233 -367 -715 -244 -2355 -781 -2362 -773 -2 1 56 24 129 51
73 26 414 152 758 280 1474 550 2127 762 2710 879 180 36 488 86 530 86 21 0
12 13 -64 89 -75 75 -95 90 -130 95 -67 11 -238 72 -328 117 -453 227 -772
697 -947 1396 -60 238 -108 566 -137 933 -23 294 -23 921 0 1229 105 1418 468
2727 1110 4008 780 1558 1826 2642 2781 2882 317 79 654 90 938 28 119 -25
165 -26 387 -8 103 8 212 11 290 7 l125 -7 18 78 c59 265 247 495 499 612 165
78 326 103 508 80z m-3715 -955 c-11 -8 -94 -63 -185 -123 -1213 -800 -2270
-2508 -2770 -4476 -133 -521 -220 -1039 -267 -1585 -25 -289 -25 -977 0 -1240
57 -603 171 -1108 352 -1565 30 -76 53 -140 51 -142 -1 -2 -47 43 -102 99
l-99 103 -58 180 c-129 406 -203 776 -254 1275 -26 251 -26 1081 0 1350 55
570 132 1023 267 1555 272 1076 708 2080 1275 2935 395 596 823 1071 1305
1447 106 83 123 92 220 123 89 28 263 77 280 79 3 0 -4 -7 -15 -15z m-7065
-1185 c63 -28 134 -101 165 -171 127 -284 -64 -634 -336 -615 -249 17 -382
325 -255 592 87 185 263 265 426 194z m21377 -191 c240 -89 381 -399 319 -703
-21 -103 -89 -243 -155 -317 -200 -223 -498 -238 -687 -35 -33 34 -74 90 -92
124 -94 177 -97 425 -7 618 124 270 386 402 622 313z m-22578 -1098 c-21 -189
-41 -345 -43 -348 -8 -7 -68 81 -94 138 -22 46 -27 73 -30 160 -5 122 13 189
75 278 32 47 120 128 129 119 2 -1 -15 -158 -37 -347z m1053 -22 c27 -5 74
-27 105 -47 155 -100 243 -275 243 -484 0 -262 -127 -480 -340 -581 -60 -29
-73 -31 -170 -31 -98 0 -110 2 -173 32 -128 61 -231 196 -272 358 -21 85 -19
235 5 329 57 226 236 407 427 435 61 9 96 7 175 -11z m21303 -853 c253 -66
445 -275 521 -570 22 -83 26 -123 27 -235 1 -276 -88 -510 -260 -691 -96 -100
-191 -164 -302 -202 -381 -132 -761 111 -873 559 -33 133 -31 350 5 489 51
195 167 385 304 500 77 64 200 128 288 149 80 19 217 20 290 1z m-11840 -490
c117 -26 115 -33 -7 -27 -72 3 -148 0 -195 -8 -524 -84 -949 -561 -1128 -1270
-60 -236 -105 -593 -106 -842 -1 -137 -3 -157 -12 -123 -7 24 -11 153 -11 330
-1 274 1 299 27 448 16 87 46 221 67 297 235 831 795 1321 1365 1195z m-10909
-2086 c-58 -514 -111 -986 -117 -1049 -7 -63 -15 -120 -18 -127 -8 -16 -132
42 -237 112 -241 160 -414 423 -470 711 -23 117 -23 311 0 428 80 415 396 756
798 861 124 32 142 34 146 14 2 -9 -44 -437 -102 -950z m1262 866 c168 -53
316 -191 400 -372 78 -170 102 -390 62 -583 -56 -276 -211 -495 -431 -610
-177 -92 -370 -94 -549 -7 -95 46 -232 185 -287 292 -67 130 -94 237 -100 395
-4 110 -1 153 15 231 69 333 287 589 562 663 91 24 235 20 328 -9z m1294
-1484 c-75 -49 -124 -114 -153 -204 -28 -86 -23 -221 10 -307 19 -49 29 -60
97 -105 78 -52 174 -146 234 -229 111 -154 140 -199 160 -252 70 -186 67 -418
-8 -603 -15 -36 -25 -72 -24 -79 3 -14 -41 -34 -61 -27 -13 6 -37 72 -37 103
0 10 5 23 12 30 23 23 -29 286 -82 420 -38 94 -109 201 -159 242 -99 77 -247
124 -401 124 -104 1 -106 1 -195 -42 -121 -59 -277 -118 -353 -133 -34 -7 -62
-15 -62 -19 0 -3 -25 -3 -56 -2 -42 3 -60 0 -74 -13 -11 -10 -39 -20 -63 -22
-40 -5 -48 -2 -83 30 -36 33 -39 39 -39 91 0 50 -2 56 -25 61 -13 4 -43 15
-67 26 -23 10 -46 19 -52 19 -15 0 -24 -64 -19 -138 6 -80 32 -135 87 -185
106 -96 266 -64 352 71 16 25 29 42 29 36 0 -5 -7 -21 -17 -34 -56 -85 -144
-140 -223 -140 -95 0 -192 73 -225 169 -17 50 -20 166 -6 205 9 23 5 27 -57
65 -37 22 -80 51 -97 66 -16 14 10 0 59 -30 49 -30 94 -55 101 -55 6 0 17 11
23 24 18 40 73 96 115 117 21 11 41 19 43 16 2 -2 -14 -12 -36 -22 -43 -20
-90 -66 -115 -115 l-15 -29 66 -21 c36 -11 71 -20 76 -20 6 0 26 13 44 30 19
16 46 33 60 36 41 10 96 -17 119 -59 18 -34 24 -37 63 -37 23 0 42 4 42 9 0 4
10 6 23 4 12 -2 76 8 142 22 66 14 170 34 230 46 76 14 136 33 194 60 108 51
178 70 269 71 39 1 72 2 72 3 0 1 -15 34 -33 74 -31 66 -39 75 -117 129 -102
69 -178 144 -247 243 -51 74 -153 258 -153 275 0 5 20 -28 45 -74 104 -194
236 -348 360 -423 l61 -36 -18 66 c-53 206 19 402 182 486 69 37 70 30 2 -14z
m-825 -157 c3 -8 0 -21 -6 -27 -9 -9 -11 -8 -5 7 4 11 2 21 -7 27 -10 6 -11 9
-1 9 7 0 15 -7 19 -16z m19439 -242 c1 -7 0 -8 -3 -2 -2 5 -13 10 -24 10 -14
0 -19 -7 -19 -25 0 -18 5 -25 19 -25 11 0 22 5 24 10 3 6 4 5 3 -2 -2 -7 -13
-13 -27 -13 -25 0 -36 23 -25 51 7 18 48 15 52 -4z m2279 -32 c7 -23 -10 -50
-30 -50 -20 0 -37 27 -30 50 4 13 15 20 30 20 15 0 26 -7 30 -20z m-20555
-106 c0 -8 -4 -12 -10 -9 -5 3 -10 10 -10 16 0 5 5 9 10 9 6 0 10 -7 10 -16z
m-852 -55 c-2 -6 -8 -10 -13 -10 -5 0 -11 4 -13 10 -2 6 4 11 13 11 9 0 15 -5
13 -11z m20344 -43 c347 -67 624 -323 757 -699 57 -163 75 -272 75 -467 0
-198 -15 -299 -70 -467 -138 -427 -431 -725 -816 -830 -100 -28 -338 -25 -443
5 -527 153 -845 761 -735 1407 58 340 230 646 473 840 84 68 233 150 323 179
139 45 304 57 436 32z m-22094 -23 c-10 -2 -28 -2 -40 0 -13 2 -5 4 17 4 22 1
32 -1 23 -4z m-98 -16 c-54 -17 -143 -112 -164 -175 -64 -192 42 -382 212
-382 91 0 155 39 213 129 16 25 29 40 29 35 0 -19 -61 -104 -88 -123 -56 -39
-96 -53 -151 -53 -100 -1 -172 49 -219 151 -51 111 -24 267 61 353 43 44 100
78 127 77 8 -1 -1 -6 -20 -12z m179 -7 c62 -31 131 -129 130 -185 0 -11 -8 3
-18 32 -25 72 -62 117 -123 147 -28 14 -46 26 -40 26 7 0 30 -9 51 -20z m2371
5 c0 -8 -4 -15 -10 -15 -5 0 -10 7 -10 15 0 8 5 15 10 15 6 0 10 -7 10 -15z
m-1402 -22 c-15 -2 -42 -2 -60 0 -18 2 -6 4 27 4 33 0 48 -2 33 -4z m87 -27
c23 -14 54 -43 68 -65 36 -54 35 -64 -2 -15 -33 46 -55 66 -96 87 -16 9 -26
16 -21 17 5 0 28 -11 51 -24z m-1056 -112 c78 -66 54 -202 -43 -239 -39 -15
-46 -15 -79 -1 -69 28 -97 117 -60 193 34 72 125 96 182 47z m1171 -58 c0 -26
-6 -18 -14 19 -5 22 -4 26 4 15 5 -8 10 -24 10 -34z m1360 8 c0 -8 -4 -12 -10
-9 -5 3 -10 10 -10 16 0 5 5 9 10 9 6 0 10 -7 10 -16z m-2393 -66 c-2 -13 -4
-5 -4 17 -1 22 1 32 4 23 2 -10 2 -28 0 -40z m-10 -60 c-3 -7 -5 -2 -5 12 0
14 2 19 5 13 2 -7 2 -19 0 -25z m2493 -78 c0 -5 -4 -10 -10 -10 -5 0 -10 5
-10 10 0 6 5 10 10 10 6 0 10 -4 10 -10z m-550 -10 c0 -5 -4 -10 -10 -10 -5 0
-10 5 -10 10 0 6 5 10 10 10 6 0 10 -4 10 -10z m190 -59 c0 -6 -4 -13 -10 -16
-5 -3 -10 1 -10 9 0 9 5 16 10 16 6 0 10 -4 10 -9z m-453 -65 c-4 -9 -11 -16
-17 -16 -17 0 -24 31 -9 41 18 11 34 -5 26 -25z m549 -241 c-3 -9 -14 -15 -23
-13 -22 4 -30 38 -11 49 18 11 43 -15 34 -36z m-176 -55 c0 -5 -4 -10 -10 -10
-5 0 -10 5 -10 10 0 6 5 10 10 10 6 0 10 -4 10 -10z m210 -110 c0 -11 -4 -20
-9 -20 -14 0 -23 18 -16 30 10 17 25 11 25 -10z m-144 -101 c10 -17 -13 -36
-27 -22 -12 12 -4 33 11 33 5 0 12 -5 16 -11z m137 -21 c7 -21 -4 -38 -23 -38
-10 0 -20 6 -23 13 -7 20 4 37 23 37 10 0 20 -6 23 -12z m17 -78 c0 -5 -2 -10
-4 -10 -3 0 -8 5 -11 10 -3 6 -1 10 4 10 6 0 11 -4 11 -10z m-256 -71 c-3 -5
-10 -7 -15 -3 -5 3 -7 10 -3 15 3 5 10 7 15 3 5 -3 7 -10 3 -15z m136 -119 c0
-11 -4 -20 -9 -20 -14 0 -23 18 -16 30 10 17 25 11 25 -10z m21836 -842 c-229
-121 -350 -380 -302 -648 9 -47 26 -116 39 -155 l24 -70 93 -63 c181 -122 292
-229 370 -358 13 -21 42 -59 65 -84 253 -277 334 -740 198 -1140 -14 -41 -35
-93 -46 -115 -11 -22 -20 -53 -21 -70 -1 -23 -6 -30 -21 -31 -11 0 -28 -4 -38
-8 -24 -11 -41 6 -60 57 -26 72 -28 116 -7 137 18 18 18 24 5 127 -51 385
-166 676 -333 841 -78 77 -219 149 -367 189 -88 23 -119 26 -265 27 l-165 1
-145 -69 c-80 -38 -195 -88 -255 -112 -106 -41 -288 -94 -325 -94 -11 0 -29
-25 -54 -75 -47 -95 -118 -168 -205 -209 -57 -26 -77 -31 -146 -31 -65 1 -90
5 -137 27 -187 87 -273 326 -202 560 4 12 -7 23 -38 39 -71 36 -199 125 -258
179 l-55 51 66 -53 c70 -55 202 -138 262 -163 l35 -14 35 58 c44 71 108 131
179 168 48 25 63 28 153 28 89 0 106 -3 150 -27 99 -52 181 -165 206 -286 l11
-53 36 7 c20 3 123 24 227 46 105 22 258 53 340 68 132 24 164 34 265 83 63
30 145 64 183 76 87 26 229 44 289 36 l47 -7 -43 94 c-24 51 -46 102 -50 113
-3 11 -62 58 -133 105 -194 128 -319 263 -453 489 -84 142 -178 331 -164 331
3 0 21 -33 39 -74 141 -304 358 -573 569 -704 55 -34 101 -60 103 -58 2 1 -3
22 -12 45 -21 59 -45 195 -45 251 0 86 28 202 69 285 61 123 162 218 289 271
87 35 86 28 -2 -18z m-3638 -170 c18 -18 14 -46 -7 -58 -15 -7 -23 -6 -35 6
-19 18 -19 20 -6 45 12 22 30 25 48 7z m2347 -107 c0 -28 -29 -51 -45 -35 -8
8 -4 10 12 10 17 -1 24 5 26 23 3 21 0 23 -22 19 -14 -3 -23 -1 -20 4 3 5 16
8 27 6 16 -2 22 -10 22 -27z m1755 -557 c0 -8 -7 -14 -15 -14 -15 0 -21 21 -9
33 10 9 24 -2 24 -19z m-1290 -84 c0 -11 -7 -20 -15 -20 -15 0 -21 21 -8 33
12 13 23 7 23 -13z m-2514 -131 c223 -107 288 -429 134 -669 -85 -132 -237
-204 -377 -179 -185 34 -307 203 -305 424 3 325 291 548 548 424z m3580 10
c10 -17 -13 -36 -27 -22 -12 12 -4 33 11 33 5 0 12 -5 16 -11z m-24213 -97
c24 -26 45 -82 53 -140 6 -46 4 -52 -11 -52 -34 0 -93 -75 -115 -146 -22 -71
-44 -227 -56 -394 l-8 -105 -8 60 c-14 110 -11 483 5 570 18 98 51 179 85 205
30 24 35 25 55 2z m24447 -222 c0 -11 -7 -20 -15 -20 -8 0 -15 9 -15 20 0 11
7 20 15 20 8 0 15 -9 15 -20z m138 -308 c2 -7 -3 -12 -12 -12 -9 0 -16 7 -16
16 0 17 22 14 28 -4z m-830 -19 c-5 -25 -28 -28 -28 -4 0 12 6 21 16 21 9 0
14 -7 12 -17z m282 -93 c0 -11 -7 -20 -15 -20 -8 0 -15 9 -15 20 0 11 7 20 15
20 8 0 15 -9 15 -20z m-675 -71 c10 -30 -18 -57 -39 -39 -16 13 -21 42 -9 53
14 14 42 6 48 -14z m-16965 -254 c74 -8 185 -23 245 -35 115 -22 333 -78 350
-90 6 -4 42 -17 80 -30 387 -126 714 -326 1065 -652 154 -143 448 -438 436
-438 -4 0 -58 47 -118 105 -305 292 -655 554 -950 710 -257 135 -521 223 -833
277 -115 20 -165 22 -425 22 -256 0 -314 -3 -435 -22 -675 -106 -1312 -412
-1858 -892 -177 -155 -258 -246 -354 -392 -109 -168 -130 -178 -254 -126 -52
22 -65 51 -49 108 33 116 521 569 890 828 523 366 1119 591 1680 635 121 9
410 5 530 -8z m17789 -94 c12 -23 -5 -61 -27 -61 -24 0 -42 19 -42 47 0 40 50
51 69 14z m-24810 -219 c25 -137 49 -232 65 -268 15 -32 25 -58 24 -59 -2 -1
-40 -5 -86 -8 l-83 -5 5 41 c3 23 8 105 11 182 7 179 17 337 21 333 1 -2 21
-99 43 -216z m24539 101 c-4 -22 -22 -20 -26 1 -2 10 3 16 13 16 10 0 15 -7
13 -17z m322 -149 c11 -12 10 -18 -3 -31 -22 -23 -52 0 -36 28 12 23 22 24 39
3z m-23542 -283 c45 -23 126 -54 180 -69 90 -24 111 -26 307 -26 181 0 233 4
379 28 92 15 170 25 172 23 6 -6 -145 -45 -281 -72 -264 -53 -522 -58 -646
-13 -128 47 -225 122 -303 232 -85 120 -81 129 17 32 72 -72 110 -102 175
-135z m23322 104 c0 -18 -5 -25 -19 -25 -11 0 -23 5 -26 10 -11 18 3 40 25 40
15 0 20 -7 20 -25z m198 -7 c30 -30 -2 -93 -36 -71 -21 13 -27 50 -12 69 15
17 32 18 48 2z m-17827 -87 c530 -97 985 -337 1397 -735 130 -126 136 -148 11
-40 -185 161 -299 244 -459 335 -114 65 -300 157 -326 162 -10 2 -71 20 -134
39 -258 80 -412 102 -725 103 -250 0 -378 -11 -544 -47 -365 -78 -752 -309
-1097 -656 -46 -46 -184 -200 -257 -286 l-24 -30 -87 74 c-47 40 -86 77 -86
81 0 16 172 197 287 301 480 437 909 654 1416 718 123 15 506 4 628 -19z
m17869 -35 c0 -8 -4 -17 -9 -21 -12 -7 -24 12 -16 25 9 15 25 12 25 -4z
m-12348 -183 c189 -400 267 -692 255 -958 -6 -141 -23 -211 -76 -320 -148
-303 -531 -467 -1081 -464 -271 2 -313 14 -70 21 248 7 394 28 558 83 280 94
443 237 517 456 56 162 71 402 40 618 -28 191 -124 509 -196 654 -11 20 -17
37 -14 37 4 0 33 -57 67 -127z m11958 83 c0 -8 -4 -17 -9 -21 -12 -7 -24 12
-16 25 9 15 25 12 25 -4z m-5568 -124 c176 -86 267 -244 255 -439 -8 -135 -71
-249 -181 -330 -85 -63 -172 -87 -291 -81 -76 4 -104 11 -158 36 -231 108
-327 377 -217 607 30 62 109 149 168 185 74 45 141 61 252 58 96 -3 112 -6
172 -36z m5776 -69 c-5 -26 -38 -29 -38 -4 0 15 6 21 21 21 14 0 19 -5 17 -17z
m-15338 -450 c0 -13 -22 5 -54 45 l-39 47 46 -45 c26 -24 47 -45 47 -47z
m-5313 -486 c3 -4 -12 -28 -34 -54 -93 -111 -221 -337 -294 -521 -143 -354
-223 -711 -267 -1182 l-8 -85 -8 140 c-13 211 8 517 49 728 75 386 229 746
422 984 l34 42 50 -24 c28 -12 53 -25 56 -28z m19694 -885 c175 -84 269 -245
256 -437 -6 -99 -34 -174 -93 -249 -92 -117 -223 -173 -384 -164 -79 5 -101
11 -164 41 -206 102 -302 345 -222 565 31 87 122 189 208 233 80 41 118 49
228 46 95 -3 112 -6 171 -35z m-23133 -268 c21 -6 22 -11 22 -120 0 -63 -2
-114 -5 -114 -32 0 -138 87 -161 132 -14 28 -14 30 17 58 17 17 45 34 63 39
40 12 37 12 64 5z m-1182 -316 c-3 -13 -8 -40 -11 -60 -3 -21 -12 -38 -19 -38
-23 0 -151 -96 -195 -146 -23 -27 -56 -70 -73 -96 -17 -26 -33 -46 -36 -43 -3
2 18 51 46 107 55 113 137 213 219 267 56 37 75 40 69 9z m1702 -8 c20 -19 22
-30 22 -152 0 -121 -2 -134 -22 -155 -20 -21 -30 -23 -125 -23 -97 0 -106 2
-128 25 -24 23 -25 30 -25 150 0 120 1 127 25 150 22 23 31 25 128 25 90 0
106 -3 125 -20z m4007 -737 c108 -79 206 -128 415 -207 308 -117 436 -195 528
-318 40 -53 72 -110 72 -126 0 -5 -46 37 -102 93 -91 90 -115 107 -208 152
-58 28 -170 75 -250 104 -160 57 -257 103 -340 159 -54 37 -250 229 -250 245
0 5 12 -3 28 -17 15 -14 63 -52 107 -85z m-4837 -412 l2 -324 -24 -41 c-24
-40 -57 -70 -106 -96 l-25 -13 27 29 c15 16 32 42 37 57 7 18 11 154 11 373
l0 345 38 -3 37 -3 3 -324z m5192 -51 c266 -76 474 -284 544 -545 23 -85 31
-236 17 -324 -46 -293 -234 -542 -506 -672 -152 -72 -203 -84 -385 -84 -135 0
-165 3 -230 23 -239 75 -416 234 -504 452 -83 203 -71 462 30 663 139 278 393
464 699 511 69 10 261 -3 335 -24z m2274 -3322 c3 -18 10 -226 16 -463 6 -236
11 -455 13 -485 2 -50 0 -55 -18 -52 -11 2 -21 5 -23 6 -2 3 -32 881 -32 969
0 50 2 57 20 57 14 0 20 -9 24 -32z"/>
<path d="M11390 44229 c-71 -20 -75 -29 -110 -214 -69 -375 -154 -640 -268
-840 -58 -101 -82 -190 -88 -320 l-5 -110 36 67 c69 125 197 231 335 278 89
31 240 38 334 16 157 -37 326 -168 394 -305 31 -62 32 -63 32 -29 0 50 -27
203 -47 263 -9 28 -44 104 -79 170 -114 217 -170 393 -243 760 l-46 230 -40
20 c-46 22 -151 29 -205 14z"/>
<path d="M11364 42819 c-71 -27 -137 -88 -171 -157 l-28 -57 0 -1240 c0 -1409
-6 -1301 83 -1393 73 -74 128 -97 237 -97 79 0 97 4 142 28 63 33 115 83 145
140 l23 42 3 1261 2 1262 -32 63 c-74 142 -251 207 -404 148z m192 -68 c71
-43 78 -160 14 -215 -105 -87 -253 18 -210 148 25 78 124 111 196 67z m-94
-683 c-17 -17 -15 -53 3 -68 8 -7 26 -10 40 -8 13 3 22 1 19 -3 -18 -29 -84 7
-84 46 0 19 17 45 29 45 3 0 0 -5 -7 -12z m87 -37 l-2 -26 -4 25 c-3 14 -10
32 -16 40 -11 13 -10 13 6 1 9 -7 16 -25 16 -40z m49 -187 c156 -77 191 -294
69 -423 -160 -169 -439 -52 -439 184 0 198 197 325 370 239z m-60 -1141 c-26
-2 -71 -2 -100 0 -29 2 -8 3 47 3 55 0 79 -1 53 -3z m42 -48 c0 -12 -17 -15
-95 -15 -78 0 -95 3 -95 15 0 12 17 15 95 15 78 0 95 -3 95 -15z m-42 -32
c-26 -2 -71 -2 -100 0 -29 2 -8 3 47 3 55 0 79 -1 53 -3z m0 -30 c-26 -2 -71
-2 -100 0 -29 2 -8 3 47 3 55 0 79 -1 53 -3z m0 -20 c-27 -2 -69 -2 -95 0 -27
2 -5 3 47 3 52 0 74 -1 48 -3z m42 -28 c0 -13 -15 -15 -92 -13 -62 2 -93 7
-96 16 -3 9 20 12 92 12 80 0 96 -3 96 -15z m0 -40 c0 -12 -17 -15 -95 -15
-78 0 -95 3 -95 15 0 12 17 15 95 15 78 0 95 -3 95 -15z m-42 -32 c-26 -2 -71
-2 -100 0 -29 2 -8 3 47 3 55 0 79 -1 53 -3z m0 -30 c-26 -2 -71 -2 -100 0
-29 2 -8 3 47 3 55 0 79 -1 53 -3z m0 -20 c-27 -2 -69 -2 -95 0 -27 2 -5 3 47
3 52 0 74 -1 48 -3z m0 -50 c-26 -2 -71 -2 -100 0 -29 2 -8 3 47 3 55 0 79 -1
53 -3z m0 -30 c-26 -2 -71 -2 -100 0 -29 2 -8 3 47 3 55 0 79 -1 53 -3z m42
-23 c0 -6 -37 -10 -90 -10 -53 0 -90 4 -90 10 0 6 37 10 90 10 53 0 90 -4 90
-10z"/>
<path d="M11434 42745 c-37 -19 -64 -63 -64 -105 0 -124 162 -165 215 -54 47
100 -55 208 -151 159z"/>
<path d="M11406 41825 c-82 -29 -145 -120 -146 -209 0 -143 92 -241 227 -240
80 1 144 37 188 108 26 43 30 59 30 120 -1 53 -6 81 -23 113 -53 101 -169 146
-276 108z m-88 -282 c19 -35 90 -91 129 -102 49 -14 79 -13 126 3 48 18 47 12
-3 -14 -43 -22 -112 -26 -157 -9 -68 26 -123 111 -122 189 l1 45 8 -46 c4 -26
13 -55 18 -66z"/>
<path d="M12874 34386 c-102 -45 -90 -149 21 -192 61 -23 146 -5 192 41 53 53
39 106 -37 145 -46 23 -129 26 -176 6z"/>
<path d="M8913 24702 c-126 -45 -229 -148 -273 -274 -17 -47 -24 -93 -27 -183
-4 -105 -1 -132 21 -218 95 -370 424 -679 759 -713 231 -23 432 124 488 356
17 73 15 229 -5 312 -75 317 -322 604 -607 705 -101 36 -277 43 -356 15z"/>
<path d="M13551 32858 c-73 -50 -96 -116 -67 -193 21 -54 63 -86 122 -93 120
-13 205 101 156 210 -38 87 -142 124 -211 76z"/>
<path d="M11090 32572 c-73 -40 -104 -122 -75 -198 46 -120 223 -127 276 -11
23 53 23 81 0 133 -36 79 -130 115 -201 76z"/>
<path d="M16013 32418 c-94 -67 -95 -191 -2 -261 41 -30 97 -32 149 -5 144 74
92 288 -69 288 -32 0 -56 -7 -78 -22z"/>
<path d="M20458 32166 c-56 -20 -85 -42 -114 -85 -51 -78 -39 -212 23 -261 93
-73 246 -31 304 83 45 88 16 217 -57 252 -48 22 -113 27 -156 11z"/>
<path d="M28652 31240 c0 -14 2 -19 5 -12 2 6 2 18 0 25 -3 6 -5 1 -5 -13z"/>
<path d="M28642 31180 c0 -14 2 -19 5 -12 2 6 2 18 0 25 -3 6 -5 1 -5 -13z"/>
<path d="M28631 31124 c0 -11 3 -14 6 -6 3 7 2 16 -1 19 -3 4 -6 -2 -5 -13z"/>
<path d="M28621 31084 c0 -11 3 -14 6 -6 3 7 2 16 -1 19 -3 4 -6 -2 -5 -13z"/>
<path d="M18260 31503 c-58 -24 -110 -98 -110 -156 1 -41 37 -103 72 -125 66
-41 165 -23 208 38 49 68 33 164 -36 217 -34 25 -103 39 -134 26z"/>
<path d="M21185 31409 c-54 -27 -91 -64 -117 -118 -50 -103 -14 -255 70 -295
93 -45 198 -27 278 46 112 103 103 305 -16 366 -58 29 -157 30 -215 1z"/>
<path d="M9165 31133 c-38 -10 -84 -55 -101 -99 -41 -107 27 -204 141 -204 65
0 110 28 135 83 25 54 25 81 -1 133 -30 64 -111 104 -174 87z"/>
<path d="M22032 30389 c-136 -67 -196 -226 -142 -372 35 -94 106 -137 224
-137 166 0 294 142 284 315 -10 150 -91 225 -243 225 -49 0 -75 -6 -123 -31z"/>
<path d="M19795 30083 c-36 -10 -83 -54 -99 -94 -21 -51 -20 -74 4 -126 25
-55 70 -83 135 -83 65 0 110 28 135 83 25 55 25 83 -2 137 -33 65 -105 100
-173 83z"/>
<path d="M22905 29259 c-69 -9 -138 -44 -190 -95 -86 -87 -121 -211 -92 -330
10 -38 30 -87 45 -109 71 -102 241 -131 378 -64 97 46 176 164 190 279 8 70
-16 170 -54 224 -49 71 -162 110 -277 95z"/>
<path d="M26261 28176 c-7 -8 -10 -24 -6 -35 14 -45 79 -30 73 17 -2 21 -9 28
-29 30 -14 2 -31 -4 -38 -12z"/>
<path d="M25172 27918 c-32 -32 7 -80 49 -58 30 17 23 64 -11 68 -14 2 -31 -3
-38 -10z"/>
<path d="M27167 27773 c-12 -12 -7 -50 8 -63 19 -15 52 -4 60 21 4 11 1 26 -5
34 -13 15 -51 20 -63 8z"/>
<path d="M24880 27530 c-75 -10 -171 -41 -167 -54 5 -14 15 -12 97 10 84 22
224 22 309 0 170 -46 312 -157 390 -306 56 -107 72 -179 69 -303 l-3 -102 -30
-3 c-16 -2 -36 -8 -42 -14 -38 -31 13 -102 56 -78 27 14 37 35 46 94 49 338
-136 637 -455 734 -77 23 -194 33 -270 22z"/>
<path d="M24228 27251 c-32 -10 -73 -28 -93 -39 -77 -46 -724 -528 -778 -581
-77 -75 -125 -148 -159 -245 -52 -149 -34 -295 47 -384 l42 -46 63 19 c35 11
88 35 119 55 99 64 714 521 760 564 160 151 231 403 158 559 -24 52 -78 118
-96 116 -3 0 -32 -8 -63 -18z"/>
<path d="M25030 26760 c-8 -14 -8 -26 0 -40 14 -26 56 -26 70 -1 13 25 13 27
-6 45 -21 22 -51 20 -64 -4z"/>
<path d="M24775 26210 c-165 -42 -255 -187 -196 -316 44 -98 186 -148 316
-113 96 26 186 115 200 198 25 151 -147 276 -320 231z m183 -62 c24 -13 53
-38 65 -57 l21 -34 -49 29 c-102 59 -256 27 -325 -67 -16 -23 -32 -57 -36 -76
-9 -46 -24 -24 -24 36 0 84 74 167 173 192 49 12 127 2 175 -23z"/>
<path d="M24265 25843 c-73 -25 -159 -113 -173 -176 -20 -97 24 -184 115 -228
72 -35 187 -33 265 4 94 46 148 123 148 211 0 81 -37 138 -115 179 -55 28
-172 33 -240 10z m201 -42 c41 -19 77 -50 95 -83 7 -13 -5 -10 -47 12 -142 75
-326 -4 -353 -151 l-8 -44 -12 43 c-43 154 164 296 325 223z"/>
<path d="M23764 25471 c-126 -60 -184 -181 -135 -286 67 -146 299 -173 437
-52 169 148 70 367 -166 367 -62 0 -86 -5 -136 -29z m231 -30 c23 -10 53 -33
68 -51 30 -35 29 -53 0 -29 -33 27 -73 39 -136 39 -112 0 -212 -68 -238 -162
-10 -36 -13 -40 -20 -23 -19 49 0 126 44 174 60 65 197 91 282 52z"/>
<path d="M25610 22940 c0 -6 9 -28 20 -50 49 -96 66 -304 35 -425 -21 -81 -61
-160 -92 -185 l-27 -21 26 -25 c32 -32 88 -35 127 -7 65 48 113 193 114 343 0
161 -39 288 -109 349 -34 30 -94 43 -94 21z"/>
<path d="M21757 21999 c-260 -61 -401 -373 -342 -759 83 -547 515 -1060 946
-1123 257 -37 458 124 515 412 24 122 15 341 -19 471 -110 424 -387 784 -722
941 -132 62 -271 83 -378 58z"/>
<path d="M23350 20469 c-307 -192 -485 -310 -525 -348 -114 -106 -232 -151
-396 -151 -123 0 -223 25 -355 89 -152 75 -302 194 -427 340 -25 30 -48 53
-50 50 -14 -16 -118 -211 -189 -354 -462 -922 -781 -2063 -897 -3205 -29 -283
-58 -740 -47 -740 5 0 377 487 401 525 7 11 18 76 24 144 39 428 133 961 251
1426 79 313 198 705 214 708 5 1 34 -42 64 -96 l55 -99 -46 -151 c-94 -311
-156 -562 -221 -892 -58 -292 -122 -697 -114 -727 1 -8 93 102 203 245 507
660 821 1052 1314 1641 161 193 335 401 385 461 118 141 605 741 810 997 l158
198 -65 112 c-35 62 -68 113 -73 115 -5 1 -218 -128 -474 -288z"/>
<path d="M24860 19313 c-149 -131 -323 -294 -629 -587 -408 -392 -629 -640
-1092 -1221 -298 -373 -826 -1061 -1142 -1485 -117 -157 -232 -310 -680 -900
-281 -369 -524 -675 -610 -766 l-61 -66 42 -144 c135 -468 336 -852 576 -1102
224 -234 480 -352 761 -352 612 0 1289 579 1847 1580 678 1216 1088 2884 1088
4430 0 275 -16 649 -29 662 -3 4 -36 -18 -71 -49z m-280 -591 c0 -543 -67
-1225 -176 -1786 -62 -319 -150 -680 -164 -671 -4 2 -33 51 -65 107 l-57 103
27 115 c93 398 179 916 215 1300 8 86 22 327 36 647 l6 122 81 115 c45 63 85
115 90 116 4 0 7 -76 7 -168z m-930 -3854 l53 -93 -61 -120 c-405 -799 -927
-1382 -1378 -1537 -274 -94 -499 -37 -713 181 -162 165 -320 438 -426 737
l-18 50 63 87 c56 79 80 98 80 63 0 -42 89 -264 176 -439 78 -157 157 -270
259 -373 146 -147 266 -192 427 -159 276 55 607 322 920 740 177 238 337 501
483 795 62 125 79 160 81 160 1 0 25 -42 54 -92z"/>
<path d="M21165 27943 c-35 -9 -87 -54 -101 -89 -42 -99 14 -202 115 -212 70
-6 117 12 147 58 27 41 34 104 16 150 -14 36 -63 79 -103 90 -36 10 -42 11
-74 3z"/>
<path d="M6392 22189 c-127 -24 -239 -139 -276 -284 -27 -102 -23 -134 29
-194 25 -29 45 -58 45 -65 0 -29 67 -111 115 -141 28 -18 64 -50 79 -70 26
-34 31 -36 65 -30 126 23 234 124 280 262 40 121 33 251 -19 352 -63 125 -193
194 -318 170z m153 -148 c86 -40 137 -124 138 -226 0 -80 -17 -135 -56 -187
-108 -142 -280 -137 -361 11 -76 140 -23 325 113 394 63 32 110 34 166 8z"/>
<path d="M6445 21908 c-97 -76 -55 -248 60 -248 60 0 125 74 125 143 0 40 -24
92 -51 111 -34 23 -100 21 -134 -6z m63 -37 c-5 -24 -38 -27 -38 -3 0 10 3 21
6 25 11 11 35 -5 32 -22z"/>
<path d="M27658 21981 c-167 -54 -314 -223 -367 -421 -10 -41 -22 -102 -25
-135 l-6 -60 66 -78 c36 -42 81 -107 99 -145 42 -85 94 -146 159 -182 28 -16
75 -57 105 -91 l54 -61 56 5 c82 9 191 67 265 141 108 109 166 235 189 407 28
221 -72 465 -233 569 -106 68 -246 88 -362 51z m293 -214 c120 -59 199 -198
199 -352 0 -167 -90 -319 -227 -387 -126 -62 -256 -37 -352 68 -177 193 -112
546 122 664 57 29 69 31 142 28 50 -2 94 -10 116 -21z"/>
<path d="M27848 21600 c-113 -34 -173 -192 -117 -307 74 -153 282 -111 329 66
38 145 -81 281 -212 241z m31 -69 c13 -24 -8 -55 -35 -49 -23 4 -30 33 -14 53
17 20 37 19 49 -4z"/>
<path d="M6178 20851 c-203 -67 -343 -266 -372 -531 l-6 -55 61 -70 c33 -38
73 -98 89 -132 33 -73 95 -144 166 -189 29 -18 72 -57 98 -87 l46 -54 56 9
c256 40 454 335 431 640 -8 93 -45 211 -91 281 -47 75 -135 152 -204 178 -80
31 -199 35 -274 10z m277 -205 c65 -30 138 -111 166 -184 45 -118 24 -288 -50
-395 -150 -219 -428 -200 -537 35 -26 58 -29 73 -29 174 0 107 1 112 38 186
43 88 122 167 189 191 67 24 164 21 223 -7z"/>
<path d="M6350 20484 c-77 -33 -123 -106 -123 -195 0 -106 65 -179 159 -179
188 0 251 293 80 371 -49 22 -70 23 -116 3z m35 -79 c0 -23 -5 -30 -19 -30
-28 0 -43 29 -26 50 21 25 45 14 45 -20z"/>
<path d="M27445 19999 c-329 -80 -573 -392 -615 -789 -5 -52 -10 -98 -10 -102
0 -4 44 -58 99 -120 54 -62 102 -124 106 -138 35 -116 159 -270 268 -334 48
-27 88 -64 144 -128 l77 -89 50 6 c452 59 767 587 660 1106 -55 268 -233 491
-456 569 -72 25 -254 36 -323 19z m300 -301 c105 -26 225 -131 283 -247 113
-227 67 -537 -108 -720 -276 -288 -683 -166 -785 234 -52 204 18 450 170 602
131 131 272 173 440 131z"/>
<path d="M27670 19441 c-120 -39 -199 -145 -208 -276 -2 -38 1 -89 7 -112 31
-116 136 -198 241 -191 143 11 247 125 258 283 2 39 -1 88 -7 110 -17 64 -65
131 -115 160 -48 28 -132 41 -176 26z m21 -81 c36 -20 16 -100 -26 -100 -20 0
-45 28 -45 51 0 17 32 59 46 59 3 0 14 -5 25 -10z"/>
<path d="M5980 18309 c-300 -34 -561 -321 -625 -686 -28 -162 -28 -162 79
-288 52 -60 98 -121 101 -135 12 -47 76 -150 129 -208 30 -31 83 -74 119 -95
46 -27 86 -63 137 -124 l73 -85 55 6 c130 15 270 86 375 189 112 110 181 230
233 402 25 83 28 104 28 260 0 157 -2 177 -27 258 -108 349 -366 542 -677 506z
m295 -314 c162 -77 267 -264 268 -475 0 -108 -15 -174 -66 -280 -52 -110 -144
-205 -244 -253 -64 -30 -75 -32 -178 -32 -102 0 -114 2 -170 30 -205 103 -311
374 -245 629 49 193 172 338 337 396 87 31 216 24 298 -15z"/>
<path d="M6114 17761 c-129 -59 -200 -215 -160 -352 41 -143 155 -214 283
-178 70 19 153 104 177 183 23 73 18 173 -12 231 -59 114 -182 164 -288 116z
m55 -75 c31 -37 -9 -103 -46 -80 -37 23 -24 94 17 94 10 0 23 -6 29 -14z"/>
<path d="M7420 16205 c0 -3 14 -32 30 -65 19 -39 37 -60 48 -60 9 0 41 -11 70
-25 28 -13 52 -20 52 -16 0 5 -25 32 -56 60 -58 53 -144 116 -144 106z"/>
<path d="M7275 16035 c-33 -7 -78 -20 -100 -28 l-40 -15 40 -6 c187 -30 279
-66 365 -143 l52 -47 -60 121 c-34 66 -68 123 -77 127 -27 10 -115 6 -180 -9z"/>
<path d="M7560 15938 c87 -158 178 -350 209 -444 l30 -89 0 90 c1 160 -58 375
-121 441 -30 32 -102 75 -146 89 -22 6 -19 -1 28 -87z"/>
<path d="M6270 15940 c0 -11 -4 -20 -10 -20 -5 0 -10 5 -10 12 0 6 -9 3 -20
-7 -18 -16 -19 -20 -5 -27 8 -5 54 -12 101 -15 l86 -6 -16 31 c-20 38 -44 52
-90 52 -29 0 -36 -4 -36 -20z"/>
<path d="M6755 15890 c-49 -9 -122 -23 -161 -29 l-72 -12 -6 -41 c-4 -22 -5
-42 -3 -44 7 -7 212 68 284 105 88 45 85 47 -42 21z"/>
<path d="M6197 15850 c-7 -27 8 -77 30 -103 28 -31 61 -39 102 -25 35 11 35
12 11 19 -23 6 -23 7 8 8 27 1 35 7 49 35 24 51 14 62 -64 70 -37 3 -82 9 -99
12 -26 5 -32 2 -37 -16z"/>
<path d="M6458 15843 c-21 -3 -29 -13 -41 -48 l-14 -44 46 6 c25 3 47 6 48 7
1 1 5 21 9 44 7 45 9 44 -48 35z"/>
<path d="M7800 15768 c0 -4 8 -37 17 -75 20 -82 23 -347 5 -435 -9 -46 -9 -62
2 -82 l13 -26 12 41 c7 22 9 49 6 60 -5 14 -1 25 12 34 16 12 18 28 17 147 -1
116 -4 143 -28 213 -24 73 -55 140 -56 123z"/>
<path d="M28364 16385 c-4 -9 -2 -21 4 -27 15 -15 44 -1 40 19 -4 23 -36 29
-44 8z"/>
<path d="M27041 16159 c-376 -74 -701 -391 -842 -821 -38 -117 -69 -296 -69
-398 l0 -79 135 -155 c112 -129 141 -168 170 -236 93 -211 208 -344 380 -440
60 -34 86 -59 180 -170 l110 -130 70 5 c379 27 747 352 904 798 97 276 106
605 26 882 -111 382 -396 669 -735 740 -77 16 -256 18 -329 4z m355 -424 c130
-27 236 -87 326 -183 395 -423 223 -1201 -310 -1400 -91 -34 -257 -42 -352
-17 -314 81 -525 413 -507 795 12 238 92 431 244 591 115 120 222 183 367 214
82 18 143 18 232 0z"/>
<path d="M27335 15357 c-73 -25 -120 -54 -173 -111 -196 -208 -161 -556 70
-681 75 -41 187 -47 273 -14 115 43 225 181 254 317 32 152 -14 320 -112 409
-84 75 -220 110 -312 80z m45 -134 c51 -66 -31 -161 -92 -106 -25 23 -24 81 4
110 29 31 62 29 88 -4z"/>
<path d="M5233 15980 c-6 -21 -23 -28 -23 -9 0 23 -29 -13 -46 -57 -46 -120
71 -215 162 -131 83 76 39 217 -68 217 -11 0 -22 -8 -25 -20z"/>
<path d="M29297 12916 l46 -93 56 -18 c31 -10 82 -31 115 -47 l58 -30 -20 29
c-41 57 -269 253 -295 253 -4 0 14 -42 40 -94z"/>
<path d="M27443 12866 c-90 -29 -167 -91 -227 -181 -43 -66 -44 -65 112 -112
l84 -25 31 37 c34 42 96 74 141 75 68 0 145 -59 162 -124 7 -27 7 -28 68 -22
33 3 63 5 65 5 8 2 -8 80 -29 133 -28 75 -104 159 -176 194 -66 32 -167 41
-231 20z"/>
<path d="M29067 12754 c-76 -14 -214 -55 -246 -74 -11 -7 1 -9 40 -10 210 -1
452 -94 586 -225 39 -39 71 -68 69 -65 -1 3 -44 89 -96 191 l-94 187 -45 6
c-64 9 -126 6 -214 -10z"/>
<path d="M29390 12737 c0 -1 43 -81 96 -177 166 -304 258 -508 324 -720 l20
-65 -5 165 c-7 230 -41 388 -123 572 -24 53 -42 76 -89 113 -71 56 -223 133
-223 112z"/>
<path d="M27539 12633 c-11 -3 -15 -12 -11 -28 3 -18 0 -25 -12 -25 -9 0 -16
8 -16 18 -1 13 -8 9 -32 -17 -30 -33 -30 -35 -10 -42 30 -11 166 -29 223 -29
57 0 61 10 27 60 -38 55 -106 80 -169 63z"/>
<path d="M27165 12573 c-56 -219 22 -433 189 -521 44 -23 63 -27 141 -27 78 0
97 4 146 27 87 43 173 138 208 230 l10 27 -82 -6 c-57 -4 -89 -12 -106 -24
-124 -97 -293 22 -279 196 3 37 3 38 -52 56 -30 11 -79 30 -108 44 -29 14 -54
25 -56 25 -2 0 -7 -12 -11 -27z"/>
<path d="M28360 12550 c-42 -10 -287 -55 -386 -71 l-70 -11 -10 -64 c-7 -45
-6 -64 1 -64 54 0 301 94 460 174 88 45 89 56 5 36z"/>
<path d="M27415 12472 c-9 -53 9 -115 46 -157 32 -36 92 -60 125 -49 86 28 97
43 32 46 -37 1 -34 2 17 7 59 6 60 7 83 51 12 24 22 54 22 66 0 20 -7 23 -72
29 -70 6 -204 30 -233 41 -9 4 -15 -7 -20 -34z m148 -149 c-7 -2 -19 -2 -25 0
-7 3 -2 5 12 5 14 0 19 -2 13 -5z"/>
<path d="M27814 12463 c-51 -4 -52 -4 -58 -41 -3 -20 -13 -50 -21 -66 -8 -16
-14 -31 -11 -33 2 -2 33 -1 70 3 76 8 82 14 87 88 4 54 5 54 -67 49z"/>
<path d="M29836 12286 c37 -154 47 -272 41 -460 -3 -94 -13 -209 -21 -254 -14
-76 -14 -86 0 -108 9 -13 14 -31 10 -39 -3 -8 -1 -15 3 -15 5 0 19 30 31 66
19 57 21 69 9 91 -12 23 -11 27 9 44 64 52 54 380 -19 585 -29 82 -75 184 -83
184 -2 0 7 -42 20 -94z"/>
<path d="M25776 13774 c-8 -21 11 -45 30 -37 20 7 14 47 -7 51 -9 2 -19 -5
-23 -14z"/>
<path d="M25847 12906 c-276 -116 -357 -518 -147 -735 64 -66 137 -96 235 -96
68 0 89 5 140 30 305 149 332 633 43 790 -76 41 -188 46 -271 11z m252 -217
c48 -29 69 -56 86 -116 24 -78 5 -153 -54 -216 -37 -41 -73 -57 -126 -57 -109
0 -183 93 -173 216 12 143 160 239 267 173z"/>
<path d="M25974 12684 c-7 -3 -10 -13 -7 -23 7 -26 -17 -38 -33 -17 -11 16
-14 14 -37 -16 -34 -45 -47 -81 -47 -134 0 -60 19 -103 64 -142 29 -26 45 -32
81 -32 58 0 84 11 123 51 84 86 69 249 -28 300 -32 18 -90 24 -116 13z"/>
<path d="M10015 7280 c-190 -30 -348 -107 -488 -240 -247 -233 -337 -573 -230
-874 61 -173 200 -329 364 -410 136 -67 198 -81 359 -81 163 0 232 16 377 86
235 113 409 320 474 564 28 105 31 289 6 390 -24 93 -85 216 -144 290 -97 119
-250 217 -398 255 -89 23 -239 32 -320 20z m-119 -242 c15 -7 36 -25 47 -40
19 -26 19 -28 3 -53 -23 -35 -73 -55 -135 -55 -82 0 -151 39 -151 85 0 26 37
63 76 75 37 12 125 5 160 -12z"/>
<path d="M33870 27315 c0 -298 0 -305 20 -305 20 0 20 7 20 305 0 298 0 305
-20 305 -20 0 -20 -7 -20 -305z"/>
</g>
</svg>
